# xmcd
#
# Track frame offsets:
#	150
#	11687
#	27084
#	40919
#	50601
#	70872
#	84301
#	95009
#	106998
#	120459
#
# Disc length: 1908 seconds
#
# Revision: 1
# Processed by: cddbd v1.5.2PL0 Copyright (c) Steve Scherf et al.
# Submitted via: audiograbber 1.83.01
#
DISCID=7807720a
DTITLE=Weihnachtsmelodien mit Internationalen Künstlern - White Christmas
DYEAR=2008
DGENRE=Christmas
TTITLE0=Frank Sinatra - Santa Claus is coming to town
TTITLE1=Eartha Kitt and Henri René and his Orchestra - Santa Baby
TTITLE2=Bing Crosby - White Christmas
TTITLE3=Brenda Lee - Jingle Bell Rock
TTITLE4=Ray Charles - Christmas Time
TTITLE5=Louis Armstrong - Winter Wonderland
TTITLE6=Perry Como - Silver Bells
TTITLE7=Doris Day - Here comes Santa Claus
TTITLE8=Harry Bellafonte - Mary´s Boy Child
TTITLE9=Mahalia Jackson - Silent Night
EXTD=
EXTT0=
EXTT1=
EXTT2=
EXTT3=
EXTT4=
EXTT5=
EXTT6=
EXTT7=
EXTT8=
EXTT9=
PLAYORDER=
